<svg width="64" height="64" viewBox="0 0 64 64" fill="none" xmlns="http://www.w3.org/2000/svg">
<path d="M11.6854 46.3698C12.3354 46.3698 12.9754 46.1998 13.5404 45.8748C11.9329 44.0072 11.9329 41.2422 13.5404 39.3749C12.5304 38.7974 11.3104 38.7224 10.2379 39.1724C9.16536 39.6199 8.36287 40.5424 8.0654 41.6649C7.7679 42.7899 8.0079 43.9874 8.71788 44.9099C9.4254 45.8299 10.5229 46.3699 11.6854 46.3699L11.6854 46.3698Z" fill="#3734A9"/>
<path d="M15.4295 42.6251C15.4295 45.9026 13.582 45.9026 13.582 42.6251C13.582 39.3476 15.4295 39.3476 15.4295 42.6251Z" fill="#3734A9"/>
<path d="M31.3105 40.375H56.0606V44.875H31.3105V40.375Z" fill="#3734A9"/>
<path d="M17.3277 46.3698C18.4927 46.3698 19.5902 45.8323 20.3002 44.9099C21.0077 43.9874 21.2502 42.7899 20.9527 41.6649C20.6527 40.5399 19.8501 39.6174 18.7752 39.1699C17.7027 38.7224 16.4827 38.7974 15.4727 39.3749C17.0801 41.2424 17.0801 44.0074 15.4727 45.8747C16.0377 46.1997 16.6776 46.3697 17.3276 46.3697L17.3277 46.3698Z" fill="#3734A9"/>
<path d="M2.875 21.0674H61.1252V28.6949H2.875V21.0674Z" fill="#3734A9"/>
<path d="M2.875 52.44H61.1252V29.9453H2.875V52.44ZM30.0603 39.7501C30.0603 39.4051 30.3403 39.1251 30.6853 39.1251H56.6853C56.8503 39.1251 57.0103 39.1901 57.1278 39.3076C57.2453 39.4251 57.3103 39.5851 57.3103 39.7501V45.5001C57.3103 45.6651 57.2453 45.8251 57.1278 45.9426C57.0103 46.0601 56.8503 46.1251 56.6853 46.1251H30.6853C30.3403 46.1251 30.0603 45.8451 30.0603 45.5001V39.7501ZM11.6852 37.6301C12.6927 37.6301 13.6778 37.9351 14.5052 38.5076C16.0352 37.4576 18.0202 37.3426 19.6602 38.2051C21.3002 39.0701 22.3277 40.7701 22.3277 42.6251C22.3277 44.4801 21.3002 46.1801 19.6602 47.045C18.0202 47.9076 16.0352 47.7926 14.5077 46.7425H14.5052C13.1977 47.64 11.5402 47.8625 10.0427 47.34C8.54264 46.82 7.38271 45.6175 6.91269 44.1025C6.44269 42.585 6.72269 40.9375 7.6652 39.66C8.60524 38.385 10.0977 37.63 11.6852 37.63L11.6852 37.6301Z" fill="#3734A9"/>
<path d="M2.875 11.5596V19.8168H61.1252V11.5596H2.875ZM7.6375 15.9521H5.79001V14.7021H7.6375V15.9521ZM21.0122 15.9521H9.11462V14.7021H21.0122V15.9521Z" fill="#3734A9"/>
</svg>
