<svg width="88" height="64" viewBox="0 0 88 64" fill="none" xmlns="http://www.w3.org/2000/svg">
<path d="M77.7334 35.7604H53.8973C52.7048 35.7604 51.788 34.8436 51.788 33.6511V9.81504C51.788 8.62251 50.7781 7.61626 49.5892 7.70574C41.3383 8.34676 34.1866 12.5654 29.4203 18.8005C26.67 17.2427 23.4613 16.3259 20.0701 16.3259C9.25131 16.3259 0.541992 25.1284 0.541992 35.8541C0.541992 46.5797 9.34446 55.3822 20.0701 55.3822C23.5546 55.3822 26.7633 54.3723 29.6027 52.8145C34.7381 59.5077 42.7134 63.9093 51.5117 63.9982C66.5449 64.1808 78.8324 52.721 79.9316 38.0527C80.0247 36.7671 79.0148 35.7607 77.7328 35.7607L77.7334 35.7604ZM5.39831 35.8499C5.39831 27.7816 11.9089 21.2751 19.9731 21.2751C28.0414 21.2751 34.548 27.7856 34.548 35.8499C34.548 43.9182 28.0374 50.4247 19.9731 50.4247C11.9084 50.4283 5.39831 43.8247 5.39831 35.8499Z" fill="#FF7F5C"/>
<path d="M61.5972 0.00596575C60.4047 -0.0871415 59.3984 0.922736 59.3984 2.11527V25.9513C59.3984 27.1438 60.3152 28.0606 61.5077 28.0606H85.3438C86.5363 28.0606 87.5426 27.0507 87.4531 25.8618C86.4432 12.1066 75.4416 1.10536 61.5974 0.00614848L61.5972 0.00596575Z" fill="#FF7F5C"/>
<path d="M20.7994 34.0154H19.2416C18.7832 34.0154 18.4179 33.8327 18.0491 33.4639C17.7733 33.0986 17.5907 32.7297 17.6838 32.2713C17.7769 31.4477 18.5074 30.8962 19.3347 30.8962H21.0751C21.5335 30.8962 21.8988 31.1719 21.9919 31.6303C22.085 31.9956 22.3571 32.2713 22.8155 32.2713H24.8317C25.1074 32.2713 25.2901 32.1782 25.4727 31.9956C25.6554 31.813 25.6554 31.6303 25.6554 31.3546C25.4727 29.2453 23.8218 27.5943 21.8057 27.3222V25.6713C21.8057 25.2129 21.4404 24.8477 20.982 24.8477H18.9658C18.5074 24.8477 18.1422 25.2129 18.1422 25.6713V27.4153C15.5745 27.9668 13.7409 30.3482 14.0167 33.0091C14.2924 35.6662 16.5844 37.6861 19.3347 37.6861H20.6167C21.0751 37.6861 21.4404 37.8687 21.8092 38.2376C22.085 38.6028 22.2676 38.9717 22.1745 39.4301C22.0814 40.2537 21.3509 40.8052 20.5236 40.8052H18.7832C18.3248 40.8052 17.9595 40.5295 17.8664 40.0711C17.7733 39.7058 17.5012 39.4301 17.0428 39.4301H15.0266C14.7509 39.4301 14.5682 39.5232 14.3856 39.7058C14.2029 39.8885 14.2029 40.0711 14.2029 40.3469C14.3856 42.4562 16.0365 44.1071 18.0526 44.3792V46.0301C18.0526 46.4885 18.4179 46.8538 18.8763 46.8538H20.8925C21.3509 46.8538 21.7161 46.4885 21.7161 46.0301V44.2897C23.9149 43.7382 25.5658 41.9978 25.8416 39.799C26.0242 38.3307 25.4763 36.8661 24.5596 35.7667C23.6428 34.6566 22.2677 34.0155 20.7994 34.0155V34.0154Z" fill="#FF7F5C"/>
</svg>
