<svg width="64" height="64" viewBox="0 0 64 64" fill="none" xmlns="http://www.w3.org/2000/svg">
<path fill-rule="evenodd" clip-rule="evenodd" d="M32.6671 3.26768L57.1996 15.4674C57.7996 15.7349 58.0671 16.3349 58.0671 16.9349C57.3996 27.8674 54.5996 36.6674 50.1996 43.8674C45.7996 51.0674 39.8668 56.5349 32.7993 60.7345C32.2668 61.067 31.6668 61.002 31.1993 60.7345C24.199 56.5345 18.1996 51.0674 13.799 43.8674C9.46649 36.6002 6.66617 27.8002 5.99865 16.867C5.93115 16.1995 6.33115 15.667 6.86617 15.3995L31.3314 3.26704C31.7314 2.99954 32.2664 3.06704 32.6664 3.26704L32.6671 3.26768ZM34.4671 40.0005H29.4671C29.2671 40.0005 29.1346 39.933 28.9346 39.933C28.1346 39.6655 27.7346 38.8005 28.0022 38.0005L29.6021 33.468C28.8022 33.068 28.0697 32.4005 27.6021 31.668C27.0697 30.868 26.7346 29.868 26.7346 28.868C26.7346 27.4005 27.3346 26.1355 28.2671 25.2005C29.1996 24.268 30.4671 23.668 31.9346 23.668C33.3346 23.668 34.6671 24.268 35.6021 25.2005C36.5346 26.133 37.1346 27.4005 37.1346 28.868C37.1346 29.868 36.8021 30.868 36.3346 31.668C35.8671 32.4005 35.1346 33.068 34.3346 33.468L35.8671 37.9355C35.9346 38.1355 35.9996 38.3355 35.9996 38.5355C35.9996 39.333 35.3321 40.0006 34.4671 40.0006V40.0005Z" fill="#00E1F0"/>
</svg>
