<svg width="1440" height="573" viewBox="0 0 1440 573" fill="none" xmlns="http://www.w3.org/2000/svg">
<path opacity="0.2" fill-rule="evenodd" clip-rule="evenodd" d="M1482.61 517.005C1450.49 534.542 1392.75 556.86 1323.89 566.861C1255.03 576.862 1175 574.549 1098.33 542.786C1074.34 532.85 1057.71 520.653 1046.46 506.878C1035.21 493.101 1029.37 477.772 1026.92 461.611C1022.71 433.813 1028.53 403.501 1034.14 374.344L1034.14 374.329C1035.04 369.632 1035.94 364.966 1036.79 360.344C1039.85 343.664 1042.28 327.57 1042.1 312.734C1041.91 297.901 1039.12 284.36 1031.76 272.764C1017.05 249.588 983.944 233.97 916.17 231.698C814.17 228.279 744.267 258.162 685.044 283.48C665.597 291.794 647.302 299.615 629.4 305.603C593.193 317.714 558.614 322.302 519.478 308.164C480.367 294.035 436.768 261.225 382.45 198.696C328.205 136.251 282.934 117.707 242.55 123.379C202.106 129.059 166.384 159.036 131.275 194.113C122.794 202.587 114.35 211.357 105.886 220.148C79.3584 247.699 52.6379 275.451 24.0003 294.881C5.09892 307.704 -14.6693 316.928 -35.8093 320.086C-56.9565 323.245 -79.4447 320.331 -103.771 308.928L-103.347 308.022C-79.1867 319.347 -56.8968 322.225 -35.9571 319.097C-15.0102 315.967 4.61743 306.823 23.4388 294.053C51.9814 274.688 78.597 247.046 105.107 219.513C113.585 210.708 122.052 201.914 130.568 193.406C165.665 158.341 201.6 128.12 242.41 122.388C283.28 116.649 328.859 135.48 383.205 198.041C437.478 260.518 480.942 293.179 519.818 307.223C558.668 321.258 593 316.724 629.082 304.655C646.884 298.7 665.117 290.905 684.522 282.609L684.523 282.609C743.773 257.277 813.958 227.271 916.203 230.699C984.041 232.973 1017.61 248.606 1032.6 272.228C1040.09 284.032 1042.91 297.776 1043.1 312.721C1043.28 327.662 1040.83 343.838 1037.77 360.525C1036.92 365.156 1036.02 369.827 1035.12 374.522L1035.11 374.559C1029.51 403.73 1023.72 433.849 1027.91 461.461C1030.34 477.475 1036.12 492.629 1047.24 506.246C1058.36 519.865 1074.84 531.975 1098.71 541.863C1175.17 573.537 1255.01 575.854 1323.75 565.871C1392.49 555.888 1450.12 533.608 1482.14 516.127L1482.61 517.005ZM1344.09 526.455C1412.96 516.454 1470.69 494.136 1502.82 476.598L1502.34 475.721C1470.32 493.201 1412.7 515.481 1343.95 525.465C1275.21 535.448 1195.38 533.131 1118.91 501.456C1095.04 491.568 1078.56 479.459 1067.44 465.839C1056.32 452.222 1050.54 437.069 1048.11 421.055C1043.93 393.442 1049.71 363.324 1055.32 334.153L1055.32 334.116C1056.23 329.421 1057.12 324.75 1057.97 320.118C1061.04 303.432 1063.48 287.256 1063.3 272.315C1063.11 257.37 1060.3 243.626 1052.81 231.822C1037.81 208.199 1004.24 192.566 936.406 190.292C834.161 186.865 763.976 216.871 704.726 242.202L704.725 242.203C685.32 250.499 667.087 258.294 649.285 264.248C613.203 276.318 578.871 280.852 540.021 266.817C501.145 252.773 457.681 220.112 403.408 157.634C349.062 95.0736 303.483 76.2423 262.614 81.9822C221.803 87.7137 185.868 117.935 150.771 153C142.255 161.508 133.788 170.302 125.31 179.107C98.8001 206.64 72.1845 234.282 43.6419 253.647C24.8205 266.416 5.19284 275.561 -15.754 278.691C-36.6938 281.819 -58.9836 278.941 -83.144 267.616L-83.5684 268.521C-59.2416 279.924 -36.7534 282.839 -15.6063 279.68C5.53381 276.521 25.302 267.298 44.2033 254.474C72.8409 235.045 99.5615 207.293 126.089 179.742C134.553 170.951 142.997 162.18 151.478 153.707C186.587 118.63 222.309 88.6524 262.753 82.9724C303.137 77.3008 348.408 95.845 402.653 158.29C456.971 220.819 500.57 253.628 539.681 267.758C578.817 281.896 613.396 277.308 649.603 265.197C667.505 259.208 685.8 251.387 705.247 243.074C764.47 217.756 834.373 187.873 936.373 191.292C1004.15 193.564 1037.25 209.182 1051.96 232.358C1059.32 243.953 1062.12 257.495 1062.3 272.327C1062.48 287.164 1060.05 303.258 1056.99 319.938C1056.14 324.559 1055.24 329.226 1054.34 333.923L1054.34 333.938C1048.73 363.094 1042.91 393.407 1047.12 421.205C1049.57 437.366 1055.41 452.694 1066.66 466.472C1077.91 480.247 1094.54 492.444 1118.53 502.38C1195.21 534.143 1275.23 536.456 1344.09 526.455ZM1523.02 436.193C1490.9 453.731 1433.16 476.049 1364.3 486.049C1295.43 496.05 1215.41 493.737 1138.73 461.975C1114.75 452.039 1098.12 439.841 1086.87 426.067C1075.62 412.289 1069.77 396.961 1067.33 380.8C1063.11 353.002 1068.94 322.689 1074.54 293.533L1074.54 293.519L1074.55 293.507L1074.55 293.49C1075.45 288.803 1076.35 284.145 1077.19 279.533C1080.25 262.853 1082.68 246.759 1082.5 231.922C1082.32 217.09 1079.52 203.548 1072.16 191.953C1057.45 168.777 1024.35 153.158 956.576 150.887C854.576 147.468 784.673 177.351 725.449 202.669C706.003 210.982 687.708 218.803 669.806 224.791C633.599 236.902 599.02 241.491 559.884 227.352C520.773 213.223 477.174 180.414 422.856 117.885C368.611 55.4397 323.34 36.8955 282.956 42.5671C242.512 48.2472 206.79 78.2247 171.681 113.302C163.2 121.775 154.756 130.545 146.292 139.336C119.764 166.888 93.0438 194.64 64.4062 214.069C45.5049 226.893 25.7367 236.116 4.59662 239.274C-16.5506 242.434 -39.0388 239.519 -63.3655 228.116L-62.9411 227.211C-38.7807 238.536 -16.4909 241.414 4.44886 238.285C25.3957 235.156 45.0234 226.011 63.8448 213.242C92.3874 193.877 119.003 166.235 145.513 138.702C153.991 129.897 162.458 121.103 170.974 112.595C206.071 77.5294 242.006 47.3085 282.816 41.5769C323.686 35.837 369.265 54.6683 423.611 117.229C477.884 179.706 521.348 212.367 560.223 226.412C599.074 240.447 633.406 235.912 669.488 223.843C687.29 217.888 705.522 210.094 724.928 201.797L724.928 201.797C784.179 176.466 854.364 146.46 956.609 149.887C1024.45 152.161 1058.01 167.794 1073.01 191.417C1080.5 203.22 1083.32 216.965 1083.5 231.91C1083.69 246.851 1081.24 263.026 1078.18 279.713C1077.33 284.345 1076.43 289.016 1075.53 293.711L1075.52 293.748C1069.91 322.918 1064.13 353.037 1068.31 380.65C1070.74 396.663 1076.52 411.817 1087.64 425.434C1098.76 439.054 1115.25 451.163 1139.12 461.051C1215.58 492.726 1295.41 495.043 1364.15 485.06C1432.9 475.076 1490.52 452.796 1522.54 435.315L1523.02 436.193ZM1543.22 395.787C1511.1 413.324 1453.36 435.642 1384.5 445.643C1315.64 455.644 1235.61 453.331 1158.94 421.568C1134.95 411.632 1118.32 399.435 1107.07 385.66C1095.82 371.883 1089.98 356.554 1087.53 340.393C1083.31 312.595 1089.14 282.283 1094.74 253.126L1094.75 253.112L1094.75 253.1L1094.75 253.084C1095.65 248.396 1096.55 243.739 1097.4 239.126C1100.46 222.446 1102.89 206.353 1102.7 191.516C1102.52 176.683 1099.73 163.142 1092.37 151.546C1077.66 128.37 1044.55 112.752 976.779 110.48C874.779 107.061 804.876 136.945 745.652 162.262C726.206 170.576 707.911 178.397 690.009 184.385C653.802 196.496 619.223 201.084 580.087 186.946C540.976 172.817 497.377 140.007 443.059 77.4785C388.814 15.0333 343.543 -3.51086 303.159 2.16077C262.715 7.84082 226.993 37.8184 191.884 72.8955C183.403 81.3687 174.959 90.1391 166.495 98.9299C139.967 126.481 113.247 154.234 84.6092 173.663C65.7079 186.486 45.9397 195.71 24.7996 198.868C3.65245 202.027 -18.8357 199.113 -43.1625 187.71L-42.7381 186.804C-18.5777 198.129 3.71214 201.007 24.6519 197.879C45.5987 194.75 65.2264 185.605 84.0478 172.835C112.59 153.47 139.206 125.828 165.716 98.2953C174.194 89.4903 182.661 80.6964 191.177 72.1881C226.274 37.123 262.209 6.9021 303.019 1.17053C343.889 -4.56934 389.468 14.262 443.814 76.8228C498.087 139.3 541.551 171.961 580.426 186.005C619.277 200.041 653.609 195.506 689.691 183.437C707.493 177.482 725.725 169.687 745.131 161.391L745.131 161.391C804.382 136.059 874.567 106.054 976.812 109.481C1044.65 111.755 1078.22 127.388 1093.21 151.01C1100.7 162.814 1103.52 176.558 1103.7 191.503C1103.89 206.444 1101.44 222.62 1098.38 239.307C1097.53 243.938 1096.63 248.609 1095.73 253.304L1095.72 253.341C1090.12 282.512 1084.33 312.631 1088.52 340.243C1090.94 356.257 1096.73 371.411 1107.85 385.028C1118.97 398.647 1135.45 410.757 1159.32 420.645C1235.78 452.319 1315.61 454.636 1384.36 444.653C1453.1 434.67 1510.72 412.39 1542.74 394.909L1543.22 395.787Z" fill="url(#paint0_linear_67_283)"/>
<defs>
<linearGradient id="paint0_linear_67_283" x1="85.631" y1="145.342" x2="1529.13" y2="145.342" gradientUnits="userSpaceOnUse">
<stop offset="0.310417" stop-color="#4535AF" stop-opacity="0.7"/>
<stop offset="0.461458" stop-color="#F8EFF4" stop-opacity="0.1"/>
<stop offset="0.851637" stop-color="#4535AF" stop-opacity="0.8"/>
</linearGradient>
</defs>
</svg>
