<svg width="17" height="16" viewBox="0 0 17 16" fill="none" xmlns="http://www.w3.org/2000/svg">
<path fill-rule="evenodd" clip-rule="evenodd" d="M1.39059 15.3584C2.05722 16.0251 3.14809 16.0251 3.81472 15.3584L8.74903 10.4241L13.6833 15.3584C14.35 16.0251 15.4408 16.0251 16.1074 15.3584C16.774 14.6918 16.774 13.601 16.1074 12.9343L11.1732 8.00001L16.1075 3.06569C16.7741 2.39907 16.7741 1.30826 16.1075 0.641633C15.4408 -0.0249917 14.35 -0.0249917 13.6833 0.641633L8.74903 5.57588L3.81472 0.64157C3.14809 -0.0250547 2.05728 -0.0250547 1.39066 0.64157C0.724032 1.3082 0.724032 2.39901 1.39066 3.06563L6.32491 8.00001L1.39059 12.9343C0.723969 13.6009 0.723969 14.6918 1.39059 15.3584Z" fill="white"/>
</svg>
